<svg width="34" height="32" viewBox="0 0 34 32" fill="none" xmlns="http://www.w3.org/2000/svg">
<path d="M8.33333 27.8064V30.0397C8.33333 30.4817 8.50893 30.9056 8.82149 31.2182C9.13405 31.5308 9.55797 31.7064 10 31.7064H23.3333C23.7754 31.7064 24.1993 31.5308 24.5118 31.2182C24.8244 30.9056 25 30.4817 25 30.0397V27.8064C27.5336 26.3436 29.6375 24.2397 31.1003 21.7061C32.5631 19.1725 33.3333 16.2986 33.3333 13.373C33.3333 12.931 33.1577 12.5071 32.8452 12.1945C32.5326 11.882 32.1087 11.7064 31.6667 11.7064C31.6361 10.6859 31.3443 9.69035 30.819 8.81493C30.2938 7.93951 29.5527 7.2135 28.6667 6.70636C28.4542 5.25459 27.7256 3.92804 26.6144 2.96991C25.5032 2.01177 24.0839 1.48625 22.6167 1.48969C22.0542 1.49131 21.4942 1.56411 20.95 1.70636C19.8028 0.611114 18.2777 0 16.6917 0C15.1056 0 13.5805 0.611114 12.4333 1.70636C11.8891 1.56411 11.3291 1.49131 10.7667 1.48969C9.29372 1.47819 7.86636 2.00007 6.74819 2.95893C5.63003 3.9178 4.89659 5.24888 4.68333 6.70636C3.79419 7.21142 3.04978 7.93653 2.52152 8.81209C1.99327 9.68765 1.6989 10.6843 1.66667 11.7064C1.22464 11.7064 0.800716 11.882 0.488155 12.1945C0.175595 12.5071 0 12.931 0 13.373C7.43203e-05 16.2986 0.770214 19.1725 2.23302 21.7061C3.69582 24.2397 5.79974 26.3436 8.33333 27.8064ZM6.85 9.47302L8.23333 9.03969L7.96667 7.53969C7.97102 7.18073 8.04603 6.82615 8.18743 6.49619C8.32883 6.16623 8.53384 5.86736 8.79075 5.61663C9.04767 5.36591 9.35145 5.16825 9.68476 5.03494C10.0181 4.90163 10.3744 4.83529 10.7333 4.83969C11.2145 4.83826 11.689 4.95258 12.1167 5.17302L13.4667 5.92302L14.3 4.63969C14.5606 4.25125 14.9128 3.93293 15.3256 3.71282C15.7383 3.49271 16.1989 3.37758 16.6667 3.37758C17.1344 3.37758 17.595 3.49271 18.0078 3.71282C18.4205 3.93293 18.7727 4.25125 19.0333 4.63969L19.8667 5.92302L21.2167 5.17302C21.6444 4.95258 22.1188 4.83826 22.6 4.83969C23.3209 4.83062 24.0165 5.105 24.5371 5.60376C25.0576 6.10251 25.3615 6.78575 25.3833 7.50636L25.1167 8.92302L26.4833 9.38969C26.9875 9.54746 27.433 9.85232 27.7626 10.2651C28.0923 10.6779 28.291 11.1798 28.3333 11.7064H5C5.04234 11.1798 5.24108 10.6779 5.57072 10.2651C5.90036 9.85232 6.34585 9.54746 6.85 9.38969V9.47302ZM29.9 15.0397C29.6219 17.2217 28.8083 19.3011 27.5317 21.0924C26.2551 22.8837 24.5551 24.3314 22.5833 25.3064C22.3059 25.4461 22.0731 25.6606 21.9112 25.9257C21.7492 26.1907 21.6645 26.4957 21.6667 26.8064V28.373H11.6667V26.8064C11.6688 26.4957 11.5841 26.1907 11.4222 25.9257C11.2602 25.6606 11.0274 25.4461 10.75 25.3064C8.77818 24.3314 7.07821 22.8837 5.8016 21.0924C4.52499 19.3011 3.71139 17.2217 3.43333 15.0397H29.9Z" fill="white"/>
</svg>
