<svg width="730" height="764" viewBox="0 0 730 764" fill="none" xmlns="http://www.w3.org/2000/svg">
<path d="M151.241 394.375V364.84C149.973 361.307 158.06 357.37 159.477 353.582C160.485 350.921 162.175 348.572 164.378 346.77C162.346 344.548 160.967 341.809 160.39 338.853C159.813 335.898 160.061 332.841 161.108 330.018C162.31 326.802 164.492 324.045 167.346 322.136C170.199 320.226 173.58 319.261 177.012 319.377C175.384 315.523 175.284 311.195 176.732 307.27C178.264 303.152 181.294 300.055 184.951 298.268C183.99 296.273 183.44 294.105 183.335 291.893C183.231 289.682 183.573 287.471 184.342 285.395C185.636 281.948 188.048 279.035 191.192 277.12C194.336 275.205 198.031 274.398 201.687 274.828C200.405 271.279 200.414 267.392 201.712 263.849C203.239 259.757 206.328 256.44 210.3 254.625C214.272 252.81 218.803 252.647 222.895 254.172C223.678 254.46 224.369 254.855 225.078 255.242C224.508 252.304 224.75 249.266 225.778 246.454C226.608 244.261 227.898 242.271 229.559 240.616C231.221 238.961 233.217 237.681 235.414 236.859C234.291 234.801 233.621 232.527 233.448 230.19C233.275 227.852 233.602 225.504 234.409 223.303C235.934 219.21 239.023 215.89 242.995 214.073C246.968 212.257 251.499 212.093 255.592 213.617C258.516 214.704 260.896 216.582 262.692 218.839C262.857 218.065 263.021 217.274 263.318 216.491C264.522 213.303 266.686 210.566 269.51 208.659C272.335 206.751 275.682 205.767 279.09 205.842C278.388 202.937 278.49 199.895 279.385 197.043C280.279 194.19 281.934 191.635 284.17 189.652C286.406 187.668 289.139 186.33 292.078 185.781C295.016 185.232 298.049 185.494 300.85 186.537C303.774 187.632 306.146 189.493 307.949 191.767C308.114 190.984 308.279 190.194 308.567 189.419C309.882 185.901 312.359 182.938 315.588 181.02C318.818 179.103 322.606 178.347 326.324 178.877C327.844 176.756 329.847 175.026 332.167 173.83C334.486 172.635 337.057 172.007 339.667 172C346.857 172 352.902 176.637 355.151 183.061C357.786 181.282 360.957 180.236 364.375 180.236C365.116 180.236 365.833 180.36 366.541 180.45C369.366 175.434 374.67 172 380.847 172C387.024 172 392.337 175.434 395.153 180.45C395.862 180.368 396.578 180.236 397.319 180.236C400.737 180.236 403.908 181.282 406.544 183.061C407.653 179.835 409.741 177.036 412.516 175.053C415.292 173.071 418.617 172.003 422.028 172C427.538 172 432.381 174.734 435.37 178.877C439.088 178.347 442.876 179.103 446.106 181.02C449.335 182.938 451.813 185.901 453.127 189.419C453.416 190.194 453.58 190.984 453.745 191.767C455.596 189.412 458.053 187.607 460.853 186.545C463.653 185.503 466.685 185.242 469.622 185.79C472.56 186.338 475.293 187.676 477.528 189.658C479.764 191.641 481.418 194.195 482.314 197.045C483.21 199.896 483.313 202.937 482.613 205.842C486.02 205.767 489.367 206.751 492.192 208.659C495.017 210.566 497.181 213.303 498.385 216.491C498.673 217.274 498.83 218.056 499.002 218.839C500.806 216.574 503.186 214.704 506.102 213.617C510.194 212.092 514.725 212.255 518.697 214.07C522.669 215.885 525.759 219.203 527.285 223.295C529.015 227.94 528.463 232.824 526.28 236.859C530.563 238.482 534.187 241.826 535.917 246.454C537.004 249.378 537.152 252.384 536.617 255.242C537.325 254.855 538.017 254.46 538.799 254.172C542.892 252.647 547.422 252.81 551.394 254.625C555.367 256.44 558.456 259.757 559.983 263.849C561.366 267.555 561.202 271.377 560.007 274.828C563.663 274.398 567.358 275.205 570.502 277.12C573.646 279.035 576.058 281.948 577.353 285.395C578.121 287.471 578.464 289.682 578.359 291.893C578.254 294.105 577.705 296.273 576.743 298.268C580.4 300.055 583.431 303.16 584.963 307.278C586.41 311.203 586.31 315.531 584.683 319.385C588.112 319.271 591.49 320.235 594.342 322.143C597.194 324.05 599.375 326.805 600.578 330.018C601.626 332.841 601.876 335.897 601.3 338.852C600.725 341.807 599.347 344.547 597.317 346.77C599.442 348.549 601.188 350.806 602.226 353.582C603.626 357.37 611.722 361.307 610.453 364.84V394.375M619.694 394.375C619.694 526.285 512.765 633.222 380.847 633.222C248.929 633.222 142 526.285 142 394.375H619.694Z" fill="white"/>
<path d="M487.917 394.375C487.917 526.285 454.973 633.222 380.848 633.222C512.765 633.222 619.695 526.285 619.695 394.375H487.917Z" fill="#D0CFCE"/>
<path d="M602.217 364.84C603.561 361.208 603.561 357.214 602.217 353.582C601.199 350.926 599.511 348.58 597.317 346.77C599.348 344.548 600.728 341.809 601.305 338.853C601.881 335.898 601.633 332.841 600.587 330.018C599.384 326.802 597.202 324.045 594.349 322.136C591.495 320.226 588.114 319.261 584.683 319.377C586.31 315.523 586.41 311.195 584.963 307.27C583.475 303.328 580.533 300.107 576.743 298.268C577.705 296.273 578.254 294.105 578.359 291.893C578.464 289.682 578.121 287.471 577.353 285.395C576.058 281.948 573.646 279.035 570.502 277.12C567.358 275.205 563.663 274.398 560.007 274.828C561.289 271.279 561.28 267.392 559.983 263.849C558.456 259.757 555.367 256.44 551.394 254.625C547.422 252.81 542.892 252.647 538.799 254.172C538.017 254.46 537.325 254.855 536.617 255.242C537.186 252.304 536.944 249.266 535.917 246.454C535.086 244.261 533.797 242.271 532.135 240.616C530.473 238.961 528.477 237.681 526.28 236.859C528.463 232.824 529.015 227.94 527.285 223.303C525.76 219.21 522.672 215.89 518.699 214.073C514.727 212.257 510.195 212.093 506.102 213.617C503.305 214.681 500.851 216.486 499.002 218.839C498.838 218.065 498.673 217.274 498.385 216.491C497.181 213.303 495.017 210.566 492.192 208.659C489.367 206.751 486.02 205.767 482.613 205.842C483.315 202.937 483.213 199.895 482.318 197.043C481.423 194.19 479.769 191.635 477.533 189.652C475.297 187.668 472.563 186.33 469.625 185.781C466.686 185.232 463.654 185.494 460.853 186.537C458.052 187.601 455.595 189.409 453.745 191.767C453.597 190.97 453.391 190.186 453.127 189.419C451.813 185.901 449.335 182.938 446.106 181.02C442.876 179.103 439.088 178.347 435.37 178.877C433.85 176.756 431.848 175.026 429.528 173.83C427.208 172.635 424.638 172.007 422.028 172C414.838 172 408.792 176.637 406.544 183.061C403.82 181.22 400.607 180.236 397.319 180.236C396.578 180.236 395.862 180.36 395.153 180.45C392.328 175.434 387.024 172 380.847 172C374.67 172 369.366 175.434 366.541 180.45C365.833 180.368 365.116 180.236 364.375 180.236C360.957 180.236 357.786 181.282 355.151 183.061C354.042 179.835 351.954 177.036 349.178 175.053C346.403 173.071 343.078 172.003 339.667 172C334.157 172 329.314 174.734 326.324 178.877C322.606 178.347 318.818 179.103 315.588 181.02C312.359 182.938 309.882 185.901 308.567 189.419C308.271 190.194 308.114 190.984 307.949 191.767C306.099 189.412 303.641 187.607 300.842 186.545C298.041 185.503 295.01 185.242 292.072 185.79C289.135 186.338 286.402 187.676 284.166 189.658C281.93 191.641 280.276 194.195 279.38 197.045C278.485 199.896 278.382 202.937 279.082 205.842C275.674 205.767 272.327 206.751 269.502 208.659C266.677 210.566 264.514 213.303 263.31 216.491C263.021 217.274 262.865 218.056 262.692 218.839C260.844 216.486 258.389 214.681 255.592 213.617C251.5 212.092 246.97 212.255 242.997 214.07C239.025 215.885 235.936 219.203 234.409 223.295C233.601 225.497 233.273 227.846 233.446 230.185C233.619 232.525 234.29 234.8 235.414 236.859C233.217 237.681 231.221 238.961 229.559 240.616C227.898 242.271 226.608 244.261 225.778 246.454C224.691 249.378 224.542 252.384 225.078 255.242C224.369 254.855 223.678 254.46 222.895 254.172C218.803 252.647 214.272 252.81 210.3 254.625C206.328 256.44 203.239 259.757 201.712 263.849C200.414 267.392 200.405 271.279 201.687 274.828C198.031 274.398 194.336 275.205 191.192 277.12C188.048 279.035 185.636 281.948 184.342 285.395C183.573 287.471 183.231 289.682 183.335 291.893C183.44 294.105 183.99 296.273 184.951 298.268C181.16 300.109 178.218 303.334 176.732 307.278C175.284 311.203 175.384 315.531 177.012 319.385C173.583 319.271 170.204 320.235 167.352 322.143C164.501 324.05 162.319 326.805 161.116 330.018C160.069 332.841 159.819 335.897 160.394 338.852C160.97 341.807 162.348 344.547 164.378 346.77C162.18 348.579 160.489 350.925 159.469 353.582C158.069 357.37 158.209 361.307 159.477 364.84M619.694 394.375C619.694 526.285 512.765 633.222 380.847 633.222C248.929 633.222 142 526.285 142 394.375H619.694Z" stroke="black" stroke-width="0.5" stroke-miterlimit="10" stroke-linecap="round" stroke-linejoin="round"/>
</svg>
