<svg width="32" height="31" viewBox="0 0 32 31" fill="none" xmlns="http://www.w3.org/2000/svg">
<path d="M28.4912 0.25C29.3392 0.250038 30.06 0.537323 30.6357 1.11426C31.2114 1.69112 31.4988 2.41286 31.5 3.26074V21.6572C31.5 22.5053 31.2125 23.2268 30.6357 23.8037C30.0589 24.3805 29.3382 24.6671 28.4912 24.666V24.667H5.86035L0.676758 29.8496L0.25 30.2764V3.26074C0.25 2.41163 0.53721 1.69016 1.11426 1.11426C1.69105 0.538715 2.41193 0.251229 3.25879 0.25H28.4912ZM18.6875 16.4795V18.6875H6.22949V16.4795H18.6875ZM25.5205 11.3545V13.5625H6.22949V11.3545H25.5205ZM25.5205 6.22949V8.4375H6.22949V6.22949H25.5205ZM2.45801 24.917L4.85059 22.5312L4.92383 22.458H28.4912C28.675 22.458 28.855 22.3842 29.0371 22.2031C29.2185 22.0227 29.2927 21.8434 29.292 21.6592V3.25879C29.2919 3.07496 29.2173 2.89503 29.0361 2.71289C28.8556 2.53143 28.6765 2.45723 28.4922 2.45801H3.25879C3.07496 2.45805 2.89503 2.53267 2.71289 2.71387C2.53142 2.8944 2.45723 3.07353 2.45801 3.25781V24.917Z" fill="white" stroke="white" stroke-width="0.5"/>
</svg>
