<svg width="34" height="29" viewBox="0 0 34 29" fill="none" xmlns="http://www.w3.org/2000/svg">
<path d="M16.8 2.10657C18.8813 0.450115 21.7432 0.231192 24.2678 0.493286C27.3518 0.814423 30.4518 1.90038 32.384 2.80579C32.6295 2.9209 32.8358 3.10571 32.9797 3.33606C33.1236 3.56626 33.2003 3.83285 33.2004 4.10461V26.7697C33.2004 27.0067 33.1423 27.241 33.0315 27.4503C32.9206 27.6597 32.7598 27.8391 32.5627 27.9698C32.3656 28.1006 32.1383 28.1787 31.9026 28.1964C31.6668 28.2141 31.4303 28.1698 31.2161 28.0695C29.482 27.2584 26.6821 26.2846 23.9827 26.004C21.2882 25.7241 19.1652 26.1721 18.0051 27.5245L17.8958 27.6583C17.7655 27.8256 17.5992 27.962 17.4094 28.0558C17.2198 28.1495 17.0115 28.1984 16.8 28.1984C16.5886 28.1984 16.3803 28.1495 16.1907 28.0558C16.0485 27.9855 15.9192 27.8915 15.8088 27.7784L15.7043 27.6583C14.5715 26.2018 12.399 25.715 9.61548 26.004C6.91794 26.2846 4.11929 27.2573 2.38306 28.0685L2.38403 28.0695C2.1698 28.1698 1.93332 28.2141 1.69751 28.1964C1.4618 28.1787 1.23453 28.1006 1.03735 27.9698C0.840246 27.8391 0.679527 27.6597 0.568604 27.4503C0.457776 27.241 0.399722 27.0067 0.399658 26.7697V4.10461C0.399809 3.83285 0.476523 3.56626 0.620361 3.33606C0.764346 3.10571 0.970557 2.9209 1.21606 2.80579C3.1483 1.90038 6.24831 0.814423 9.33228 0.493286H9.33325C11.8573 0.23327 14.7188 0.45024 16.8 2.10657ZM15.3997 4.6554C14.2073 3.46432 12.1666 3.07441 9.61743 3.33899C7.31067 3.57779 4.93013 4.32663 3.20044 5.04797V24.6476C4.97207 23.9935 7.1562 23.3863 9.33228 23.1583L9.33325 23.1573C11.3332 22.95 13.5365 23.0485 15.3997 23.9142V4.6554ZM23.9827 3.33899C21.4335 3.07441 19.3928 3.46432 18.2004 4.6554V23.9142C20.0638 23.0471 22.266 22.951 24.2678 23.1603C26.4445 23.3846 28.6272 23.9933 30.3997 24.6476V5.04797C28.67 4.32663 26.2894 3.57779 23.9827 3.33899Z" fill="white" stroke="white" stroke-width="0.8"/>
</svg>
