<svg width="32" height="32" viewBox="0 0 32 32" fill="none" xmlns="http://www.w3.org/2000/svg">
<path d="M20.8333 4.72222L11.1667 1.5L2.16056 4.50311C1.96822 4.56732 1.80094 4.6904 1.68239 4.85491C1.56385 5.01943 1.50004 5.21706 1.5 5.41983V29.1579C1.49978 29.3113 1.53603 29.4625 1.60576 29.599C1.6755 29.7356 1.77671 29.8536 1.90105 29.9433C2.0254 30.033 2.16929 30.0918 2.32087 30.115C2.47244 30.1381 2.62734 30.1248 2.77278 30.0763L11.1667 27.2778M20.8333 4.72222L29.2272 1.92372C29.3725 1.87521 29.5273 1.86193 29.6787 1.88497C29.8302 1.90801 29.974 1.96672 30.0983 2.05625C30.2226 2.14578 30.3238 2.26358 30.3937 2.39992C30.4635 2.53626 30.5 2.68725 30.5 2.84044V26.5802C30.5003 26.7832 30.4366 26.9812 30.3181 27.146C30.1995 27.3109 30.032 27.4342 29.8394 27.4985L20.8333 30.5L11.1667 27.2778M11.1667 27.2778V1.5M20.8333 30.5V4.72222" stroke="white" stroke-width="3" stroke-linecap="round" stroke-linejoin="round"/>
</svg>
