<svg width="393" height="93" viewBox="0 0 393 93" fill="none" xmlns="http://www.w3.org/2000/svg">
<g filter="url(#filter0_d_159_601)">
<path d="M134.637 1C139.218 2.26097 143.556 4.82202 147.129 8.77344C149.355 11.2355 151.074 15.0461 152.322 17.7832C152.432 18.0245 152.54 18.2574 152.643 18.4805C154.772 25.8345 158.918 32.6135 164.766 38.0957C173.58 46.3585 185.535 51 198 51C210.465 51 222.42 46.3585 231.234 38.0957C236.832 32.8484 240.868 26.4123 243.071 19.4219C243.258 19.0286 243.463 18.5899 243.678 18.1191C244.926 15.3819 246.645 11.5715 248.871 9.10938C252.798 4.76623 257.649 2.10328 262.732 1H357.986C382.839 1.00009 403 21.1472 403 46V68C403 92.8528 382.853 113 358 113H34C9.14719 113 -11 92.8528 -11 68V46C-11 21.1472 9.16093 1.00008 34.0137 1H134.637Z" fill="#FFB951" shape-rendering="crispEdges"/>
<path d="M134.637 1L134.902 0.035853L134.772 0H134.637V1ZM147.129 8.77344L147.871 8.10276L147.871 8.10274L147.129 8.77344ZM152.322 17.7832L151.412 18.198V18.198L152.322 17.7832ZM152.643 18.4805L153.603 18.2023L153.582 18.1299L153.551 18.0615L152.643 18.4805ZM164.766 38.0957L164.082 38.8253V38.8253L164.766 38.0957ZM198 51V52V52V51ZM231.234 38.0957L231.918 38.8253V38.8253L231.234 38.0957ZM243.071 19.4219L242.168 18.9923L242.138 19.055L242.118 19.1213L243.071 19.4219ZM243.678 18.1191L244.588 18.534V18.534L243.678 18.1191ZM248.871 9.10938L248.129 8.43867V8.43868L248.871 9.10938ZM262.732 1V0H262.625L262.52 0.0227541L262.732 1ZM357.986 1V0V0V1ZM403 68H404V68H403ZM358 113V114V114V113ZM-11 46H-12V46H-11ZM34.0137 1V0H34.0137L34.0137 1ZM134.637 1L134.371 1.96415C138.771 3.17514 142.943 5.63533 146.387 9.44414L147.129 8.77344L147.871 8.10274C144.169 4.00871 139.665 1.34679 134.902 0.035853L134.637 1ZM147.129 8.77344L146.387 9.44411C148.488 11.7676 150.145 15.4178 151.412 18.198L152.322 17.7832L153.232 17.3684C152.004 14.6744 150.222 10.7035 147.871 8.10276L147.129 8.77344ZM152.322 17.7832L151.412 18.198C151.523 18.4416 151.632 18.6763 151.735 18.8995L152.643 18.4805L153.551 18.0615C153.448 17.8385 153.341 17.6074 153.232 17.3684L152.322 17.7832ZM152.643 18.4805L151.682 18.7586C153.862 26.2886 158.105 33.2227 164.082 38.8253L164.766 38.0957L165.45 37.3661C159.73 32.0044 155.682 25.3803 153.603 18.2023L152.643 18.4805ZM164.766 38.0957L164.082 38.8253C173.088 47.2678 185.29 52 198 52V51V50C185.78 50 174.072 45.4491 165.45 37.3661L164.766 38.0957ZM198 51V52C210.71 52 222.912 47.2678 231.918 38.8253L231.234 38.0957L230.55 37.3661C221.928 45.4491 210.22 50 198 50V51ZM231.234 38.0957L231.918 38.8253C237.639 33.4626 241.769 26.8796 244.025 19.7225L243.071 19.4219L242.118 19.1213C239.967 25.945 236.025 32.2342 230.55 37.3661L231.234 38.0957ZM243.071 19.4219L243.974 19.8515C244.164 19.4533 244.371 19.0097 244.588 18.534L243.678 18.1191L242.768 17.7043C242.555 18.1701 242.353 18.6039 242.168 18.9923L243.071 19.4219ZM243.678 18.1191L244.588 18.534C245.855 15.7536 247.512 12.1035 249.613 9.78007L248.871 9.10938L248.129 8.43868C245.778 11.0394 243.996 15.0102 242.768 17.7043L243.678 18.1191ZM248.871 9.10938L249.613 9.78008C253.398 5.59436 258.062 3.0369 262.945 1.97725L262.732 1L262.52 0.0227541C257.236 1.16967 252.199 3.93809 248.129 8.43867L248.871 9.10938ZM262.732 1V2H357.986V1V0H262.732V1ZM357.986 1V2C382.287 2.00009 402 21.6999 402 46H403H404C404 20.5946 383.391 8.98838e-05 357.986 0V1ZM403 46H402V68H403H404V46H403ZM403 68H402C402 92.3005 382.301 112 358 112V113V114C383.405 114 404 93.4051 404 68H403ZM358 113V112H34V113V114H358V113ZM34 113V112C9.69947 112 -10 92.3005 -10 68H-11H-12C-12 93.4051 8.5949 114 34 114V113ZM-11 68H-10V46H-11H-12V68H-11ZM-11 46H-10C-10 21.6999 9.71281 2.00008 34.0137 2L34.0137 1L34.0137 0C8.60904 8.07047e-05 -12 20.5946 -12 46H-11ZM34.0137 1V2H134.637V1V0H34.0137V1Z" fill="#FFC671" fill-opacity="0.3"/>
</g>
<defs>
<filter id="filter0_d_159_601" x="-16" y="0" width="424" height="122" filterUnits="userSpaceOnUse" color-interpolation-filters="sRGB">
<feFlood flood-opacity="0" result="BackgroundImageFix"/>
<feColorMatrix in="SourceAlpha" type="matrix" values="0 0 0 0 0 0 0 0 0 0 0 0 0 0 0 0 0 0 127 0" result="hardAlpha"/>
<feOffset dy="4"/>
<feGaussianBlur stdDeviation="2"/>
<feComposite in2="hardAlpha" operator="out"/>
<feColorMatrix type="matrix" values="0 0 0 0 0 0 0 0 0 0 0 0 0 0 0 0 0 0 0.25 0"/>
<feBlend mode="normal" in2="BackgroundImageFix" result="effect1_dropShadow_159_601"/>
<feBlend mode="normal" in="SourceGraphic" in2="effect1_dropShadow_159_601" result="shape"/>
</filter>
</defs>
</svg>
